<svg xmlns="http://www.w3.org/2000/svg" viewBox="0 0 512 512">
  <!-- Dark rounded-square background -->
  <rect width="512" height="512" rx="96" fill="#0f0f0f"/>

  <!-- Outer flame — orange body -->
  <path d="
    M256 60
    C256 60 340 150 340 230
    C340 270 325 295 308 310
    C318 278 300 262 300 262
    C300 292 278 312 278 338
    C278 356 282 370 288 384
    C256 420 196 390 196 338
    C196 290 224 268 224 268
    C210 282 208 298 208 310
    C186 295 172 268 172 230
    C172 150 256 60 256 60Z
  " fill="#FF6B00"/>

  <!-- Inner flame — deep red core -->
  <path d="
    M256 200
    C256 200 290 236 290 272
    C290 302 276 320 264 336
    C252 352 248 368 248 384
    C228 370 218 350 218 326
    C218 296 238 274 238 274
    C230 286 228 300 230 312
    C216 298 210 278 210 258
    C210 228 256 200 256 200Z
  " fill="#dc2626"/>

  <!-- Bright yellow-white core tip -->
  <ellipse cx="252" cy="340" rx="22" ry="28" fill="#fbbf24" opacity="0.55"/>
</svg>
